<svg id="svg" version="1.1" width="400" height="400" viewBox="0 0 400 400" xmlns="http://www.w3.org/2000/svg" xmlns:xlink="http://www.w3.org/1999/xlink"><g id="svgg"><path id="path0" d="M0.000 200.000 L 0.000 400.000 200.000 400.000 L 400.000 400.000 400.000 200.000 L 400.000 0.000 200.000 0.000 L 0.000 0.000 0.000 200.000 M211.499 52.654 C 218.504 53.211,229.503 55.336,230.670 56.359 C 231.816 57.362,231.740 57.659,226.548 72.568 C 224.720 77.815,224.411 78.128,221.815 77.363 C 216.621 75.833,206.887 74.788,200.638 75.089 C 150.119 77.529,118.062 127.647,134.514 178.469 C 147.685 219.154,186.103 240.620,226.069 229.625 L 229.650 228.640 231.993 231.146 C 237.455 236.989,243.951 244.202,244.018 244.498 C 244.359 246.010,225.900 251.429,216.906 252.458 C 160.423 258.914,111.388 213.252,110.140 153.037 C 109.022 99.050,146.127 56.874,198.565 52.526 C 201.554 52.278,207.512 52.337,211.499 52.654 M248.070 63.042 C 262.941 70.375,276.232 82.722,284.853 97.215 C 288.014 102.528,288.706 101.715,275.658 108.024 C 266.638 112.387,267.737 112.426,264.483 107.625 C 257.419 97.202,247.970 88.788,237.002 83.153 C 232.520 80.850,232.531 80.859,232.556 79.626 C 232.596 77.665,239.001 60.503,239.851 60.079 C 240.787 59.612,241.995 60.047,248.070 63.042 M206.505 104.620 C 248.382 113.572,265.513 165.687,237.764 199.717 C 235.647 202.313,235.539 201.734,238.793 205.258 C 241.450 208.137,241.571 208.224,242.475 207.909 C 245.492 206.857,249.512 208.284,252.493 211.464 C 254.728 213.848,277.202 238.410,280.451 242.019 C 287.608 249.969,283.196 261.359,272.778 261.830 C 267.480 262.069,267.862 262.388,250.718 243.383 C 247.648 239.979,242.795 234.619,239.935 231.471 C 233.439 224.319,231.947 221.055,233.426 217.225 C 233.758 216.364,233.830 216.464,229.314 211.580 L 227.486 209.604 223.871 211.772 C 180.497 237.782,128.198 197.199,140.836 147.340 C 148.234 118.157,178.308 98.593,206.505 104.620 M291.296 110.606 C 292.064 111.490,295.019 119.998,296.197 124.721 C 297.713 130.795,299.035 139.075,298.489 139.075 C 298.398 139.075,297.480 138.689,296.450 138.217 C 289.904 135.217,281.957 138.226,278.180 145.134 L 277.266 146.805 277.052 144.136 C 276.470 136.895,274.843 129.800,272.039 122.277 C 270.739 118.788,270.342 119.158,280.598 114.275 C 289.767 109.910,290.478 109.666,291.296 110.606 M190.034 115.299 C 151.713 120.806,136.310 167.818,163.794 195.388 C 192.734 224.418,240.274 203.408,240.330 161.563 C 240.368 132.904,217.014 111.422,190.034 115.299 M89.802 118.084 C 91.776 118.984,92.115 121.665,90.463 123.317 L 89.378 124.402 74.359 124.402 L 59.340 124.402 58.298 123.471 C 57.404 122.672,57.257 122.330,57.257 121.053 C 57.257 119.775,57.404 119.433,58.298 118.634 L 59.340 117.703 74.153 117.703 C 84.958 117.703,89.191 117.806,89.802 118.084 M202.754 141.554 C 204.801 143.212,204.973 142.423,197.976 163.477 C 192.039 181.341,191.791 182.002,190.763 182.695 C 188.855 183.982,186.379 183.049,185.866 180.851 C 185.529 179.406,197.463 143.032,198.693 141.754 C 199.596 140.815,201.713 140.711,202.754 141.554 M294.177 142.900 C 296.506 143.771,298.121 145.542,300.579 149.920 C 330.668 203.529,328.738 199.824,328.477 203.477 C 328.246 206.699,326.696 209.135,323.923 210.634 L 322.648 211.324 292.663 211.324 L 262.679 211.324 261.146 210.562 C 257.462 208.733,255.022 204.959,255.039 201.116 C 255.051 198.353,255.181 198.066,262.426 184.848 C 265.406 179.410,271.259 168.716,275.431 161.085 C 279.604 153.453,283.369 146.682,283.799 146.038 C 285.923 142.858,290.426 141.496,294.177 142.900 M180.317 147.054 C 182.958 149.132,182.405 150.381,175.977 156.850 L 170.518 162.344 175.960 167.855 C 182.587 174.564,183.186 176.298,179.500 178.099 C 177.545 179.055,176.955 178.647,169.329 171.069 C 161.151 162.943,160.659 161.952,163.580 159.479 C 164.050 159.082,167.244 155.979,170.679 152.584 C 177.577 145.767,178.215 145.401,180.317 147.054 M220.599 153.509 C 227.726 160.519,227.817 160.625,227.986 162.141 L 228.158 163.675 221.176 170.708 C 212.766 179.181,211.435 179.897,209.255 177.127 C 207.621 175.049,208.024 174.316,214.231 168.074 L 219.850 162.424 214.225 156.890 C 207.721 150.490,207.194 149.254,210.005 146.977 C 212.036 145.332,212.706 145.745,220.599 153.509 M79.769 154.361 C 80.835 155.427,81.062 157.557,80.236 158.737 C 79.307 160.063,78.442 160.160,68.454 160.062 L 58.958 159.968 58.028 158.926 C 56.697 157.437,56.749 155.946,58.182 154.514 L 59.266 153.429 69.052 153.429 L 78.837 153.429 79.769 154.361 M83.427 190.202 C 84.791 191.375,84.886 193.531,83.635 194.930 L 82.668 196.013 71.022 196.013 C 59.686 196.013,59.353 195.995,58.479 195.342 C 56.797 194.087,56.701 191.701,58.273 190.244 L 59.104 189.474 70.842 189.474 L 82.580 189.474 83.427 190.202 M203.721 275.508 C 204.511 276.019,205.423 277.765,205.423 278.767 C 205.423 282.517,200.329 284.102,198.406 280.949 C 196.200 277.330,200.203 273.231,203.721 275.508 M216.829 293.541 L 216.746 311.802 213.716 311.802 L 210.686 311.802 210.603 293.541 L 210.521 275.279 213.716 275.279 L 216.911 275.279 216.829 293.541 M82.240 276.721 C 86.464 277.717,89.919 280.098,92.110 283.524 C 93.372 285.496,93.447 285.369,90.112 286.881 L 87.560 288.038 86.922 287.161 C 83.003 281.776,75.459 281.015,70.801 285.535 C 66.289 289.914,66.186 298.431,70.590 302.977 C 75.125 307.658,83.549 307.113,86.752 301.931 L 87.443 300.813 90.292 302.244 C 93.564 303.887,93.412 303.640,92.224 305.365 C 85.145 315.650,68.822 314.756,63.080 303.769 C 55.560 289.381,67.064 273.143,82.240 276.721 M258.054 291.228 L 258.054 305.582 264.924 305.582 L 271.793 305.582 271.702 308.692 L 271.611 311.802 261.643 311.887 L 251.675 311.971 251.675 294.422 L 251.675 276.874 254.864 276.874 L 258.054 276.874 258.054 291.228 M112.098 286.285 C 123.886 288.782,125.863 305.859,114.980 311.184 C 108.245 314.479,99.592 311.375,96.918 304.704 C 92.788 294.397,101.350 284.008,112.098 286.285 M142.948 286.786 C 143.671 287.154,144.731 287.968,145.304 288.593 L 146.346 289.730 147.333 288.606 C 150.315 285.210,156.572 285.023,160.115 288.225 C 162.954 290.789,163.376 292.889,163.250 303.828 L 163.158 311.802 160.128 311.802 L 157.097 311.802 156.938 303.190 C 156.765 293.835,156.717 293.581,154.924 292.488 C 152.824 291.208,149.887 291.956,148.697 294.074 C 148.041 295.241,148.006 295.698,148.001 303.233 C 147.996 312.662,148.248 312.013,144.630 311.895 L 141.786 311.802 141.627 303.175 C 141.488 295.650,141.396 294.438,140.906 293.692 C 139.167 291.041,134.906 291.355,133.224 294.258 C 132.982 294.677,132.800 297.803,132.695 303.349 L 132.536 311.802 129.506 311.802 L 126.475 311.802 126.475 299.203 L 126.475 286.603 129.426 286.511 L 132.376 286.419 132.376 287.770 L 132.376 289.120 133.471 288.059 C 135.771 285.830,139.969 285.266,142.948 286.786 M186.424 286.782 C 193.777 289.533,196.318 301.059,191.097 307.974 C 187.319 312.978,179.842 314.015,175.678 310.113 L 174.801 309.291 174.801 315.422 L 174.801 321.554 171.691 321.463 L 168.581 321.372 168.581 303.987 L 168.581 286.603 171.611 286.603 L 174.641 286.603 174.801 287.836 L 174.960 289.070 175.598 288.361 C 177.775 285.941,182.381 285.270,186.424 286.782 M237.696 286.451 C 242.531 287.805,247.020 295.466,245.808 300.294 L 245.602 301.116 236.677 301.116 C 226.736 301.116,227.029 301.041,228.201 303.285 C 230.258 307.222,235.856 308.058,239.104 304.915 L 240.090 303.961 242.373 305.278 C 245.138 306.871,245.148 306.973,242.754 309.189 C 236.165 315.290,225.337 312.728,222.116 304.306 C 221.253 302.048,221.352 296.107,222.294 293.701 C 224.609 287.787,231.269 284.651,237.696 286.451 M288.728 286.267 C 294.366 287.462,297.711 291.780,297.748 297.913 L 297.767 300.957 288.877 301.042 L 279.986 301.127 280.188 302.158 C 281.088 306.755,287.516 308.419,291.269 305.028 L 292.503 303.914 294.736 305.263 C 297.434 306.893,297.430 306.857,295.113 309.111 C 288.295 315.741,276.564 312.430,274.176 303.203 C 271.552 293.060,279.136 284.234,288.728 286.267 M319.390 286.836 C 323.645 288.656,324.433 290.905,324.639 301.815 C 324.847 312.825,325.125 311.962,321.366 311.962 L 318.341 311.962 318.341 303.769 C 318.341 293.217,317.798 291.866,313.557 291.866 C 309.227 291.866,308.652 293.178,308.453 303.509 L 308.293 311.802 305.263 311.802 L 302.233 311.802 302.233 299.203 L 302.233 286.603 305.183 286.511 L 308.134 286.419 308.184 287.309 C 308.212 287.798,308.228 288.377,308.220 288.596 C 308.198 289.186,308.450 289.086,309.116 288.238 C 310.919 285.946,315.762 285.285,319.390 286.836 M342.662 286.625 C 344.327 287.192,346.535 288.968,347.218 290.289 L 347.689 291.199 345.435 292.538 L 343.181 293.877 342.261 292.870 C 339.690 290.055,334.568 291.030,335.359 294.183 C 335.579 295.060,336.721 295.630,340.351 296.673 C 347.075 298.606,349.616 302.378,347.544 307.350 C 344.757 314.039,332.311 314.271,328.879 307.699 C 328.344 306.673,328.638 306.344,331.481 304.787 L 332.978 303.967 334.399 305.388 C 336.725 307.715,340.814 307.786,341.768 305.517 C 342.607 303.522,341.799 302.877,336.482 301.299 C 331.774 299.901,329.674 298.015,329.300 294.847 C 328.542 288.421,335.452 284.168,342.662 286.625 M204.628 287.161 C 204.724 287.556,204.763 293.262,204.714 299.841 L 204.625 311.802 201.515 311.894 L 198.405 311.985 198.405 299.427 C 198.405 292.520,198.501 286.773,198.618 286.656 C 199.265 286.008,204.454 286.444,204.628 287.161 M231.782 291.695 C 229.888 292.370,227.751 294.812,227.751 296.300 C 227.751 296.542,229.577 296.651,233.652 296.651 C 240.163 296.651,239.989 296.715,239.118 294.632 C 238.012 291.984,234.696 290.657,231.782 291.695 M284.084 291.559 C 282.524 292.026,280.064 294.939,280.064 296.319 C 280.064 296.537,282.093 296.651,285.965 296.651 C 292.474 296.651,292.257 296.736,291.266 294.577 C 290.038 291.903,287.084 290.662,284.084 291.559 M106.061 292.452 C 101.147 294.785,100.844 303.291,105.587 305.744 C 112.044 309.083,118.327 302.321,115.029 295.581 C 113.416 292.284,109.379 290.876,106.061 292.452 M178.469 292.310 C 173.220 294.610,173.400 304.186,178.729 306.200 C 184.224 308.276,189.207 302.356,187.068 296.293 C 185.812 292.735,181.771 290.863,178.469 292.310 M94.131 329.509 C 95.973 330.021,96.614 330.929,95.671 331.693 C 94.936 332.288,94.910 332.287,94.058 331.658 C 93.082 330.936,91.747 331.076,91.417 331.936 C 91.127 332.691,91.710 333.230,93.435 333.803 C 97.733 335.231,97.690 339.541,93.371 340.242 C 90.779 340.663,87.831 338.687,89.459 337.620 C 90.206 337.130,90.302 337.139,91.102 337.769 C 92.087 338.543,93.531 338.642,94.086 337.974 C 94.796 337.119,94.162 336.313,92.227 335.607 C 89.493 334.610,88.619 333.256,89.441 331.289 C 90.126 329.650,92.033 328.926,94.131 329.509 M212.122 329.997 C 213.798 330.838,214.167 331.579,213.218 332.201 C 212.417 332.725,212.349 332.722,211.692 332.129 C 208.729 329.452,204.573 333.283,206.685 336.745 C 207.643 338.316,209.404 338.729,211.279 337.821 C 213.562 336.715,214.660 337.421,213.009 338.934 C 210.782 340.976,207.035 340.629,205.191 338.211 C 201.696 333.629,206.949 327.403,212.122 329.997 M229.002 330.391 C 233.300 333.573,231.176 340.203,225.868 340.170 C 221.555 340.143,219.047 336.152,220.896 332.257 C 222.217 329.471,226.446 328.498,229.002 330.391 M110.367 330.463 L 110.367 331.419 107.974 331.419 L 105.582 331.419 105.582 332.536 C 105.582 333.628,105.612 333.653,106.938 333.707 C 107.683 333.737,108.581 333.775,108.931 333.791 C 109.380 333.812,109.599 334.080,109.670 334.693 C 109.771 335.566,109.771 335.566,107.677 335.566 L 105.582 335.566 105.582 336.828 L 105.582 338.090 107.895 338.184 C 110.154 338.275,110.210 338.298,110.308 339.155 L 110.409 340.032 106.879 340.032 L 103.349 340.032 103.349 334.769 L 103.349 329.506 106.858 329.506 L 110.367 329.506 110.367 330.463 M124.083 330.463 L 124.083 331.419 121.691 331.419 L 119.298 331.419 119.298 332.521 L 119.298 333.623 121.451 333.717 C 123.510 333.808,123.604 333.847,123.604 334.609 C 123.604 335.362,123.488 335.416,121.531 335.566 L 119.458 335.726 119.360 336.908 L 119.261 338.091 121.752 338.184 C 124.205 338.276,124.244 338.291,124.343 339.155 L 124.444 340.032 120.914 340.032 L 117.384 340.032 117.384 334.769 L 117.384 329.506 120.734 329.506 L 124.083 329.506 124.083 330.463 M155.024 330.463 L 155.024 331.419 152.607 331.419 L 150.189 331.419 150.294 332.616 L 150.399 333.812 152.472 333.971 C 154.451 334.124,154.550 334.171,154.646 335.008 C 154.747 335.884,154.746 335.885,152.697 335.885 L 150.646 335.885 150.437 337.661 C 150.322 338.638,150.311 339.571,150.412 339.735 C 150.513 339.898,150.085 340.032,149.461 340.032 L 148.325 340.032 148.325 334.769 L 148.325 329.506 151.675 329.506 L 155.024 329.506 155.024 330.463 M164.274 334.769 L 164.274 340.032 163.158 340.032 L 162.041 340.032 162.041 334.769 L 162.041 329.506 163.158 329.506 L 164.274 329.506 164.274 334.769 M174.765 331.294 L 175.834 333.083 176.992 331.299 C 178.062 329.649,178.242 329.514,179.365 329.510 C 180.725 329.505,180.754 329.348,178.884 332.131 C 177.138 334.729,177.138 334.639,178.922 337.283 C 180.844 340.132,180.825 340.032,179.465 340.032 C 178.518 340.032,178.241 339.819,177.179 338.278 C 175.712 336.148,175.837 336.147,174.542 338.287 C 173.544 339.936,173.415 340.032,172.205 340.032 L 170.924 340.032 172.371 337.962 C 174.746 334.564,174.713 334.923,172.897 332.233 C 170.977 329.387,170.995 329.506,172.493 329.506 C 173.612 329.506,173.768 329.628,174.765 331.294 M242.615 332.695 C 244.434 336.562,244.194 336.563,245.899 332.672 L 247.301 329.473 248.610 329.569 L 249.920 329.665 250.023 334.848 L 250.126 340.032 249.037 340.032 L 247.949 340.032 247.977 336.364 C 248.012 331.953,248.018 331.956,246.398 335.653 C 244.570 339.824,243.949 339.812,241.944 335.566 L 240.513 332.536 240.512 336.284 L 240.510 340.032 239.553 340.032 L 238.596 340.032 238.596 334.769 L 238.596 329.506 239.856 329.506 L 241.115 329.506 242.615 332.695 M264.460 330.707 C 266.712 333.227,264.714 336.523,260.935 336.523 L 259.649 336.523 259.649 338.278 C 259.649 340.014,259.639 340.032,258.692 340.032 L 257.735 340.032 257.735 334.737 L 257.735 329.442 260.632 329.554 C 263.442 329.662,263.558 329.696,264.460 330.707 M274.322 334.769 L 274.322 340.032 273.365 340.032 L 272.408 340.032 272.408 334.769 L 272.408 329.506 273.365 329.506 L 274.322 329.506 274.322 334.769 M283.892 333.812 L 283.892 338.118 286.124 338.118 L 288.357 338.118 288.357 339.075 L 288.357 340.032 285.167 340.032 L 281.978 340.032 281.978 334.769 L 281.978 329.506 282.935 329.506 L 283.892 329.506 283.892 333.812 M302.073 330.463 L 302.073 331.419 299.681 331.419 L 297.289 331.419 297.289 332.695 L 297.289 333.971 299.362 333.971 C 301.361 333.971,301.435 334.000,301.435 334.769 C 301.435 335.538,301.362 335.566,299.344 335.566 L 297.252 335.566 297.350 336.886 L 297.448 338.206 299.681 338.242 C 301.870 338.277,301.916 338.295,302.015 339.155 L 302.116 340.032 298.745 340.032 L 295.375 340.032 295.375 334.769 L 295.375 329.506 298.724 329.506 L 302.073 329.506 302.073 330.463 M224.343 331.564 C 223.000 332.153,222.209 333.704,222.426 335.324 C 223.021 339.759,229.133 339.171,229.133 334.678 C 229.133 332.220,226.600 330.573,224.343 331.564 M259.649 333.014 L 259.649 334.609 261.021 334.609 C 262.596 334.609,263.158 334.190,263.158 333.014 C 263.158 331.839,262.596 331.419,261.021 331.419 L 259.649 331.419 259.649 333.014 M133.069 338.008 C 134.161 338.996,133.081 340.750,131.802 340.066 C 130.800 339.530,130.646 338.680,131.435 338.041 C 132.285 337.353,132.344 337.352,133.069 338.008 M188.857 337.810 C 189.685 338.254,189.657 339.592,188.809 340.046 C 187.532 340.730,186.456 339.161,187.450 338.063 C 188.068 337.381,188.057 337.382,188.857 337.810 M310.707 337.810 C 311.694 338.339,311.172 340.351,310.048 340.351 C 309.897 340.351,309.549 340.125,309.273 339.850 C 308.129 338.705,309.291 337.053,310.707 337.810 " stroke="none" fill="#0c1424" fill-rule="evenodd"></path><path id="path1" d="M189.155 104.125 C 154.902 108.557,132.163 142.896,140.982 176.874 C 150.687 214.271,193.026 231.579,224.856 211.160 C 227.083 209.732,227.543 209.545,227.906 209.923 C 232.506 214.698,233.744 216.350,233.461 217.337 C 232.276 221.469,233.512 224.395,238.947 230.325 C 241.123 232.699,246.061 238.145,249.920 242.427 C 266.459 260.777,266.153 260.480,269.495 261.451 C 276.842 263.587,283.732 258.161,283.732 250.239 C 283.732 245.627,283.516 245.311,271.422 232.165 C 265.880 226.141,258.944 218.590,256.010 215.385 C 249.352 208.114,246.902 206.741,242.669 207.910 L 241.478 208.239 238.625 205.156 L 235.771 202.073 236.553 201.116 C 270.595 159.466,240.315 97.504,189.155 104.125 M204.429 115.625 C 238.533 122.311,252.258 165.443,229.074 193.076 C 207.648 218.613,166.804 211.817,153.592 180.518 C 141.223 151.214,159.215 119.908,191.228 115.031 C 193.205 114.729,201.845 115.118,204.429 115.625 M198.776 141.866 C 197.974 142.634,186.893 174.998,185.832 179.668 C 185.166 182.601,189.903 184.577,191.523 182.042 C 192.570 180.404,204.196 144.491,203.987 143.540 C 203.471 141.193,200.481 140.232,198.776 141.866 M169.635 153.658 C 159.884 163.374,159.859 161.816,169.924 171.574 C 177.814 179.223,178.400 179.543,180.567 177.377 C 182.680 175.264,182.285 174.477,175.908 168.093 L 170.316 162.494 175.625 157.244 C 180.809 152.117,182.003 150.551,181.627 149.380 C 180.966 147.326,179.831 146.411,177.942 146.411 C 177.017 146.411,176.128 147.187,169.635 153.658 M209.697 147.496 C 207.398 149.795,207.721 150.452,214.274 156.812 L 219.936 162.307 214.274 168.016 C 209.268 173.063,208.612 173.845,208.612 174.762 C 208.612 176.923,209.957 178.292,212.092 178.302 L 213.498 178.309 220.621 171.231 C 229.452 162.456,229.442 162.480,225.712 158.578 C 214.996 147.370,211.939 145.254,209.697 147.496 M288.836 160.113 C 286.476 161.089,286.200 162.355,286.658 170.103 C 286.868 173.652,287.141 178.565,287.264 181.021 C 287.512 185.958,287.822 186.948,289.372 187.749 C 291.705 188.956,294.200 187.602,294.562 184.934 C 294.817 183.049,295.694 167.242,295.694 164.515 C 295.694 160.742,292.410 158.634,288.836 160.113 M288.687 193.553 C 284.901 195.641,285.126 201.033,289.067 202.674 C 292.211 203.983,295.701 202.138,296.185 198.910 C 296.796 194.837,292.249 191.588,288.687 193.553 M199.431 275.458 C 196.948 277.197,197.392 281.383,200.156 282.295 C 204.457 283.715,207.233 278.459,203.664 275.652 C 202.608 274.821,200.480 274.724,199.431 275.458 M210.677 275.666 C 210.591 275.892,210.557 284.115,210.603 293.939 L 210.686 311.802 213.716 311.802 L 216.746 311.802 216.746 293.620 L 216.746 275.439 213.790 275.347 C 211.605 275.279,210.794 275.362,210.677 275.666 M73.745 276.882 C 55.972 281.538,56.628 308.495,74.602 312.133 C 81.241 313.477,87.540 311.245,91.602 306.112 C 93.256 304.020,93.200 303.865,90.237 302.375 L 87.650 301.074 86.010 302.815 C 78.692 310.583,66.782 304.728,67.366 293.650 C 67.951 282.560,80.897 278.395,87.081 287.308 L 87.560 287.997 90.375 286.662 L 93.190 285.327 91.942 283.402 C 88.222 277.668,80.841 275.023,73.745 276.882 M106.806 286.131 C 92.002 288.630,92.717 310.765,107.656 312.417 C 124.295 314.257,127.633 288.820,111.107 286.113 C 109.043 285.775,108.914 285.776,106.806 286.131 M137.640 286.106 C 136.078 286.374,134.031 287.407,133.174 288.361 L 132.536 289.070 132.376 287.836 L 132.217 286.603 129.426 286.511 L 126.635 286.419 126.595 291.774 C 126.573 294.719,126.566 300.431,126.579 304.466 L 126.601 311.802 129.489 311.894 C 132.300 311.983,132.378 311.966,132.423 311.256 C 132.449 310.855,132.485 307.153,132.503 303.030 C 132.546 293.295,133.181 291.866,137.470 291.866 C 141.266 291.866,141.942 293.732,141.944 304.226 L 141.946 311.962 144.785 311.962 L 147.625 311.962 147.743 303.748 C 147.895 293.182,148.439 291.870,152.668 291.867 C 156.579 291.864,157.075 293.146,157.174 303.509 L 157.253 311.802 160.019 311.895 C 163.539 312.013,163.307 312.592,163.312 303.694 C 163.319 293.702,162.870 291.224,160.596 288.707 C 157.364 285.130,150.054 285.187,147.161 288.813 L 146.332 289.852 145.071 288.483 C 143.278 286.538,140.430 285.627,137.640 286.106 M180.135 286.128 C 178.420 286.426,175.937 287.759,175.353 288.695 C 174.917 289.392,174.427 289.520,174.505 288.915 C 174.534 288.696,174.540 288.050,174.519 287.480 L 174.482 286.443 171.611 286.443 L 168.740 286.443 168.740 303.999 L 168.740 321.555 171.691 321.463 L 174.641 321.372 174.801 315.341 C 174.940 310.073,175.017 309.379,175.413 309.857 C 179.463 314.745,189.270 312.367,192.384 305.742 C 197.067 295.779,189.970 284.415,180.135 286.128 M230.994 286.295 C 219.663 288.754,217.824 305.930,228.330 311.170 C 233.115 313.557,239.728 312.474,243.230 308.730 C 245.034 306.801,245.071 306.947,242.364 305.335 L 240.074 303.972 238.937 305.077 C 235.340 308.571,229.146 306.937,227.768 302.132 L 227.480 301.126 236.467 301.042 L 245.455 300.957 245.449 297.927 C 245.436 289.776,238.960 284.566,230.994 286.295 M198.551 286.843 C 198.466 287.063,198.435 292.769,198.481 299.522 L 198.565 311.802 201.408 311.895 C 202.973 311.946,204.336 311.853,204.439 311.687 C 204.541 311.521,204.586 305.774,204.538 298.914 L 204.451 286.443 201.578 286.443 C 199.570 286.443,198.658 286.564,198.551 286.843 M235.971 291.722 C 237.963 292.554,239.553 294.452,239.553 295.997 C 239.553 296.632,239.388 296.651,233.652 296.651 C 226.983 296.651,227.098 296.705,228.536 294.252 C 230.086 291.606,233.177 290.555,235.971 291.722 M112.230 292.567 C 117.060 294.869,117.244 302.991,112.527 305.688 C 107.513 308.556,102.223 305.215,102.257 299.203 C 102.290 293.279,107.062 290.104,112.230 292.567 M184.420 292.786 C 190.062 296.364,187.752 306.539,181.298 306.539 C 177.072 306.539,174.647 303.794,174.649 299.011 C 174.651 293.165,179.823 289.870,184.420 292.786 M187.363 338.259 C 187.022 339.147,187.393 339.871,188.239 339.969 C 189.160 340.077,189.618 339.395,189.300 338.392 C 189.074 337.680,187.624 337.580,187.363 338.259 M188.457 339.516 C 188.847 339.632,188.821 339.658,188.361 339.611 C 187.989 339.573,187.700 339.284,187.662 338.912 C 187.614 338.452,187.641 338.426,187.757 338.816 C 187.846 339.112,188.160 339.427,188.457 339.516 " stroke="none" fill="#ede1d5" fill-rule="evenodd"></path><path id="path2" d="M198.252 52.636 C 154.332 56.019,120.007 87.483,111.814 131.870 C 110.113 141.085,109.616 154.043,110.694 161.085 C 110.933 162.646,110.948 162.559,110.826 160.287 C 110.402 152.339,110.315 148.832,110.547 149.052 C 110.692 149.188,110.777 149.844,110.738 150.509 C 110.687 151.368,110.847 151.881,111.291 152.283 C 111.634 152.593,111.861 153.122,111.797 153.457 C 111.732 153.792,111.823 154.067,111.999 154.067 C 112.175 154.067,112.230 154.211,112.121 154.386 C 112.013 154.561,112.042 154.705,112.185 154.705 C 112.953 154.705,113.232 153.424,112.601 152.793 C 111.815 152.007,112.238 151.939,113.110 152.711 C 113.929 153.436,114.407 153.512,114.407 152.919 C 114.407 152.658,114.220 152.516,113.992 152.604 C 113.764 152.692,113.492 152.626,113.389 152.458 C 113.285 152.290,113.388 152.151,113.618 152.148 C 113.921 152.145,113.904 152.059,113.557 151.834 C 113.151 151.572,113.166 151.524,113.655 151.520 C 114.011 151.517,114.155 151.363,114.030 151.116 C 113.918 150.897,114.089 151.012,114.410 151.372 C 114.730 151.732,115.136 152.091,115.311 152.170 C 115.486 152.248,115.586 152.445,115.532 152.606 C 115.478 152.767,115.665 152.708,115.946 152.474 C 116.295 152.185,116.345 151.981,116.105 151.832 C 115.564 151.498,117.243 150.524,117.915 150.782 C 118.314 150.935,118.231 150.730,117.633 150.085 C 116.878 149.272,116.722 149.221,116.208 149.620 C 115.697 150.017,115.701 149.986,116.238 149.356 L 116.846 148.644 117.303 149.297 C 117.624 149.756,117.875 149.856,118.144 149.633 C 118.413 149.409,118.649 149.509,118.936 149.970 C 119.161 150.330,119.191 150.530,119.003 150.413 C 118.814 150.297,118.660 150.369,118.660 150.574 C 118.660 150.809,118.946 150.875,119.438 150.751 C 119.866 150.644,120.305 150.700,120.414 150.876 C 120.523 151.052,120.783 151.192,120.992 151.186 C 121.235 151.180,121.199 151.036,120.893 150.786 C 120.175 150.201,120.215 149.740,120.991 149.682 C 121.539 149.640,121.584 149.692,121.208 149.929 C 120.839 150.163,120.915 150.231,121.547 150.234 C 121.994 150.237,122.550 150.060,122.782 149.841 C 123.129 149.513,123.146 149.556,122.878 150.080 C 122.541 150.736,122.488 150.938,122.488 151.554 C 122.488 151.789,122.295 151.761,121.930 151.474 C 121.421 151.076,121.411 151.087,121.820 151.607 C 122.244 152.148,122.314 152.133,123.140 151.342 C 123.776 150.733,124.079 150.613,124.257 150.900 C 124.414 151.154,124.369 151.214,124.132 151.067 C 123.898 150.922,123.764 151.086,123.764 151.515 C 123.764 151.967,123.632 152.114,123.365 151.958 C 123.146 151.829,123.218 152.012,123.525 152.363 C 123.833 152.715,123.976 153.121,123.844 153.267 C 123.712 153.412,123.786 153.427,124.008 153.299 C 124.231 153.171,124.319 152.914,124.204 152.729 C 124.060 152.496,124.171 152.490,124.563 152.709 C 125.202 153.067,126.431 152.278,126.091 151.728 C 125.983 151.554,126.063 151.518,126.272 151.647 C 126.930 152.054,128.183 152.168,128.386 151.840 C 128.840 151.104,129.412 152.322,129.278 153.741 C 129.084 155.802,129.116 156.377,129.440 156.590 C 129.596 156.694,129.908 158.555,130.132 160.726 C 130.356 162.898,130.666 165.051,130.820 165.511 C 131.120 166.404,131.033 165.271,130.467 160.907 C 126.957 133.844,138.867 105.187,160.204 89.360 C 178.110 76.077,198.847 72.035,222.253 77.265 C 224.540 77.775,224.614 77.675,226.993 70.900 C 231.979 56.697,231.979 56.698,229.653 55.934 C 222.291 53.515,207.289 51.940,198.252 52.636 M111.234 140.905 C 111.160 141.390,111.098 141.069,111.096 140.191 C 111.094 139.314,111.154 138.917,111.229 139.310 C 111.305 139.702,111.307 140.420,111.234 140.905 M110.917 144.896 C 110.846 145.467,110.788 145.000,110.788 143.860 C 110.788 142.719,110.846 142.253,110.917 142.823 C 110.987 143.393,110.987 144.326,110.917 144.896 M118.900 148.086 C 118.856 148.305,119.047 148.469,119.325 148.449 C 119.603 148.430,119.830 148.601,119.830 148.830 C 119.830 149.319,119.324 149.280,118.748 148.747 C 118.263 148.298,118.213 147.687,118.660 147.687 C 118.836 147.687,118.943 147.867,118.900 148.086 M125.897 152.678 C 125.777 152.799,125.680 153.053,125.683 153.243 C 125.685 153.433,125.829 153.373,126.002 153.110 C 126.281 152.685,126.354 152.685,126.659 153.110 C 126.939 153.500,126.979 153.504,126.878 153.130 C 126.735 152.599,126.215 152.360,125.897 152.678 M127.497 154.173 C 127.407 154.407,127.535 154.599,127.782 154.599 C 128.028 154.599,128.230 154.407,128.230 154.173 C 128.230 153.939,128.101 153.748,127.945 153.748 C 127.788 153.748,127.587 153.939,127.497 154.173 M111.079 163.955 C 111.079 164.569,111.144 164.821,111.225 164.514 C 111.305 164.207,111.305 163.704,111.225 163.397 C 111.144 163.090,111.079 163.341,111.079 163.955 M111.398 166.188 C 111.398 166.802,111.463 167.053,111.544 166.746 C 111.624 166.439,111.624 165.937,111.544 165.630 C 111.463 165.323,111.398 165.574,111.398 166.188 M131.293 167.783 C 131.517 169.521,132.734 174.549,132.892 174.391 C 133.006 174.278,131.514 167.267,131.249 166.667 C 131.172 166.491,131.192 166.994,131.293 167.783 M112.025 170.016 C 112.023 170.911,112.829 174.273,112.867 173.525 C 112.880 173.262,112.696 172.185,112.459 171.132 C 112.221 170.080,112.026 169.577,112.025 170.016 M113.611 177.352 C 113.627 178.181,114.129 179.543,114.140 178.788 C 114.146 178.437,114.026 177.863,113.876 177.512 C 113.708 177.121,113.605 177.059,113.611 177.352 M114.239 179.904 C 114.239 180.167,114.363 180.670,114.514 181.021 C 114.686 181.423,114.788 181.482,114.788 181.180 C 114.788 180.917,114.664 180.415,114.514 180.064 C 114.341 179.662,114.239 179.603,114.239 179.904 M115.200 183.094 C 115.200 183.357,115.394 184.075,115.630 184.689 C 115.866 185.303,116.060 185.590,116.060 185.327 C 116.060 185.064,115.866 184.346,115.630 183.732 C 115.394 183.118,115.200 182.831,115.200 183.094 M251.887 277.087 C 251.770 277.204,251.675 285.027,251.675 294.471 L 251.675 311.643 261.563 311.643 L 271.451 311.643 271.451 308.772 L 271.451 305.901 264.753 305.901 L 258.054 305.901 258.054 291.388 L 258.054 276.874 255.077 276.874 C 253.440 276.874,252.004 276.970,251.887 277.087 M281.573 286.878 C 271.456 291.139,271.043 306.710,280.927 311.235 C 285.903 313.514,293.482 311.843,296.180 307.872 L 296.950 306.739 295.662 306.007 C 294.953 305.604,293.949 304.973,293.432 304.604 L 292.491 303.934 291.616 304.870 C 288.093 308.641,281.365 307.233,280.156 302.471 C 279.703 300.684,279.101 300.797,289.048 300.797 L 297.927 300.797 297.927 299.261 C 297.927 289.710,289.678 283.465,281.573 286.878 M312.030 286.510 C 311.454 286.703,310.342 287.425,309.558 288.115 L 308.134 289.368 308.134 288.065 L 308.134 286.762 305.263 286.762 L 302.392 286.762 302.392 299.203 L 302.392 311.643 305.239 311.643 L 308.086 311.643 308.190 303.589 C 308.322 293.329,309.014 291.800,313.555 291.739 C 317.903 291.680,318.501 293.111,318.501 303.588 L 318.501 311.641 321.451 311.642 L 324.402 311.643 324.402 302.769 C 324.402 292.881,324.220 291.656,322.397 289.266 C 320.411 286.662,315.485 285.353,312.030 286.510 M334.511 286.753 C 331.064 288.100,329.436 290.375,329.411 293.884 C 329.381 297.906,331.420 299.771,337.799 301.557 C 342.170 302.781,343.298 304.279,341.332 306.245 C 339.639 307.938,335.473 307.362,333.885 305.214 C 333.515 304.715,333.064 304.306,332.881 304.306 C 332.627 304.306,329.249 306.218,328.592 306.733 C 328.528 306.783,328.787 307.328,329.168 307.944 C 332.804 313.828,344.129 313.760,347.129 307.838 C 349.769 302.625,347.503 299.087,340.032 296.754 C 335.863 295.452,335.247 295.050,335.247 293.627 C 335.247 290.679,340.344 290.208,342.505 292.955 L 343.120 293.737 345.244 292.465 C 347.640 291.030,347.533 291.196,346.879 289.930 C 345.253 286.787,338.720 285.109,334.511 286.753 M289.025 291.970 C 290.488 292.742,291.851 294.629,291.861 295.896 C 291.867 296.714,290.234 296.931,283.984 296.944 C 279.512 296.952,279.536 296.967,280.514 294.875 C 282.115 291.449,285.711 290.222,289.025 291.970 M90.247 330.438 C 88.412 332.272,89.182 334.359,92.086 335.423 C 94.008 336.127,94.833 336.859,94.546 337.606 C 94.060 338.872,91.647 338.850,90.675 337.571 C 90.272 337.040,88.995 337.740,88.995 338.491 C 88.995 339.724,93.259 340.483,95.033 339.565 C 97.323 338.381,96.560 334.741,93.887 334.099 C 92.354 333.731,91.228 333.025,91.228 332.432 C 91.228 331.112,93.001 330.654,94.376 331.618 C 95.233 332.218,96.196 331.631,95.847 330.722 C 95.274 329.228,91.641 329.044,90.247 330.438 M103.668 334.769 L 103.668 340.032 106.858 340.032 L 110.048 340.032 110.048 339.234 C 110.048 338.455,109.995 338.437,107.656 338.437 L 105.263 338.437 105.263 337.002 L 105.263 335.566 107.337 335.566 C 109.325 335.566,109.410 335.534,109.410 334.784 C 109.410 334.047,109.294 333.996,107.416 333.907 L 105.423 333.812 105.324 332.616 L 105.225 331.419 106.759 331.356 C 107.603 331.321,108.688 331.306,109.171 331.323 C 109.933 331.350,110.048 331.233,110.048 330.430 L 110.048 329.506 106.858 329.506 L 103.668 329.506 103.668 334.769 M117.431 334.769 L 117.488 340.032 120.785 340.032 L 124.083 340.032 124.083 339.234 C 124.083 338.455,124.030 338.437,121.691 338.437 L 119.298 338.437 119.298 337.002 L 119.298 335.566 121.372 335.566 C 123.371 335.566,123.445 335.538,123.445 334.769 C 123.445 333.999,123.372 333.971,121.353 333.971 L 119.262 333.971 119.360 332.651 L 119.458 331.331 121.691 331.296 C 123.879 331.261,123.925 331.243,124.024 330.383 L 124.125 329.506 120.750 329.506 L 117.375 329.506 117.431 334.769 M131.207 338.300 C 130.910 339.076,131.519 339.872,132.411 339.872 C 133.631 339.872,133.523 337.999,132.295 337.857 C 131.696 337.789,131.349 337.930,131.207 338.300 M122.284 339.234 C 122.181 339.503,121.732 339.702,121.258 339.688 C 120.794 339.674,120.610 339.585,120.849 339.490 C 121.217 339.344,121.217 339.274,120.849 339.041 C 120.553 338.853,120.741 338.764,121.441 338.761 C 122.224 338.757,122.424 338.870,122.284 339.234 " stroke="none" fill="#0ab4f2" fill-rule="evenodd"></path><path id="path3" d="M239.851 60.079 C 239.001 60.503,232.596 77.665,232.556 79.626 C 232.531 80.859,232.520 80.850,237.002 83.153 C 247.970 88.788,257.419 97.202,264.483 107.625 C 267.737 112.426,266.638 112.387,275.658 108.024 C 288.706 101.715,288.014 102.528,284.853 97.215 C 276.232 82.722,262.941 70.375,248.070 63.042 C 241.995 60.047,240.787 59.612,239.851 60.079 M280.598 114.275 C 270.342 119.158,270.739 118.788,272.039 122.277 C 274.843 129.800,276.470 136.895,277.052 144.136 L 277.266 146.805 278.180 145.134 C 281.957 138.226,289.904 135.217,296.450 138.217 C 297.480 138.689,298.398 139.075,298.489 139.075 C 299.606 139.075,296.235 123.493,293.452 115.789 C 290.896 108.713,292.005 108.844,280.598 114.275 M288.413 142.738 C 284.779 143.872,285.056 143.481,275.431 161.085 C 271.259 168.716,265.406 179.410,262.426 184.848 C 255.181 198.066,255.051 198.353,255.039 201.116 C 255.022 204.959,257.462 208.733,261.146 210.562 L 262.679 211.324 292.663 211.324 L 322.648 211.324 323.923 210.634 C 326.696 209.135,328.246 206.699,328.477 203.477 C 328.738 199.824,330.668 203.529,300.579 149.920 C 296.806 143.199,293.393 141.184,288.413 142.738 M58.182 154.514 C 56.749 155.946,56.697 157.437,58.028 158.926 L 58.958 159.968 68.454 160.062 C 78.442 160.160,79.307 160.063,80.236 158.737 C 81.062 157.557,80.835 155.427,79.769 154.361 L 78.837 153.429 69.052 153.429 L 59.266 153.429 58.182 154.514 M294.455 161.047 C 295.948 162.539,295.939 162.382,295.220 175.158 C 294.534 187.352,294.432 187.724,291.678 188.093 C 288.474 188.523,287.568 187.071,287.264 181.021 C 287.141 178.565,286.868 173.652,286.658 170.103 C 286.448 166.555,286.378 163.271,286.503 162.805 C 287.339 159.679,292.046 158.638,294.455 161.047 M58.273 190.244 C 56.701 191.701,56.797 194.087,58.479 195.342 C 59.353 195.995,59.686 196.013,71.022 196.013 L 82.668 196.013 83.635 194.930 C 84.886 193.531,84.791 191.375,83.427 190.202 L 82.580 189.474 70.842 189.474 L 59.104 189.474 58.273 190.244 M294.032 193.824 C 297.704 196.489,296.409 202.390,292.008 203.050 C 286.241 203.914,283.599 196.360,288.687 193.553 C 290.094 192.777,292.777 192.913,294.032 193.824 M195.774 220.002 C 196.168 220.078,196.814 220.078,197.209 220.002 C 197.604 219.926,197.281 219.864,196.491 219.864 C 195.702 219.864,195.379 219.926,195.774 220.002 M168.508 288.038 C 168.508 288.828,168.570 289.151,168.646 288.756 C 168.722 288.361,168.722 287.715,168.646 287.321 C 168.570 286.926,168.508 287.249,168.508 288.038 M141.731 298.405 C 141.733 299.633,141.791 300.096,141.860 299.435 C 141.929 298.773,141.927 297.768,141.857 297.202 C 141.787 296.636,141.730 297.177,141.731 298.405 M141.751 304.785 C 141.751 307.065,141.802 307.957,141.864 306.765 C 141.925 305.574,141.925 303.708,141.863 302.618 C 141.801 301.529,141.750 302.504,141.751 304.785 M208.333 329.519 C 201.595 331.031,203.553 341.230,210.385 340.205 C 212.479 339.891,214.523 338.083,213.440 337.503 C 212.845 337.184,212.484 337.238,211.279 337.821 C 209.404 338.729,207.643 338.316,206.685 336.745 C 204.573 333.283,208.729 329.452,211.692 332.129 C 212.728 333.065,214.403 332.035,213.488 331.024 C 212.309 329.722,210.188 329.103,208.333 329.519 M224.632 329.552 C 221.923 330.033,220.341 332.035,220.341 334.983 C 220.341 340.444,228.111 342.277,230.644 337.413 C 232.818 333.237,229.358 328.712,224.632 329.552 M148.325 334.769 L 148.325 340.032 149.461 340.032 C 150.085 340.032,150.513 339.898,150.412 339.735 C 150.311 339.571,150.322 338.638,150.437 337.661 L 150.646 335.885 152.697 335.885 C 154.746 335.885,154.747 335.884,154.646 335.008 C 154.550 334.171,154.451 334.124,152.472 333.971 L 150.399 333.812 150.294 332.616 L 150.189 331.419 152.607 331.419 L 155.024 331.419 155.024 330.463 L 155.024 329.506 151.675 329.506 L 148.325 329.506 148.325 334.769 M162.041 334.769 L 162.041 340.032 163.158 340.032 L 164.274 340.032 164.274 334.769 L 164.274 329.506 163.158 329.506 L 162.041 329.506 162.041 334.769 M171.292 329.679 C 171.292 329.775,172.014 330.924,172.897 332.233 C 174.713 334.923,174.746 334.564,172.371 337.962 L 170.924 340.032 172.205 340.032 C 173.415 340.032,173.544 339.936,174.542 338.287 C 175.837 336.147,175.712 336.148,177.179 338.278 C 178.241 339.819,178.518 340.032,179.465 340.032 C 180.825 340.032,180.844 340.132,178.922 337.283 C 177.138 334.639,177.138 334.729,178.884 332.131 C 180.754 329.348,180.725 329.505,179.365 329.510 C 178.242 329.514,178.062 329.649,176.992 331.299 L 175.834 333.083 174.765 331.294 C 173.802 329.685,171.292 328.518,171.292 329.679 M238.596 334.769 L 238.596 340.032 239.553 340.032 L 240.510 340.032 240.512 336.284 L 240.513 332.536 241.944 335.566 C 243.949 339.812,244.570 339.824,246.398 335.653 C 248.018 331.956,248.012 331.953,247.977 336.364 L 247.949 340.032 249.037 340.032 L 250.126 340.032 250.023 334.848 L 249.920 329.665 248.610 329.569 L 247.301 329.473 245.899 332.672 C 244.194 336.563,244.434 336.562,242.615 332.695 L 241.115 329.506 239.856 329.506 L 238.596 329.506 238.596 334.769 M257.735 334.737 L 257.735 340.032 258.692 340.032 C 259.639 340.032,259.649 340.014,259.649 338.278 L 259.649 336.523 260.935 336.523 C 267.258 336.523,266.965 329.797,260.632 329.554 L 257.735 329.442 257.735 334.737 M272.408 334.769 L 272.408 340.032 273.365 340.032 L 274.322 340.032 274.322 334.769 L 274.322 329.506 273.365 329.506 L 272.408 329.506 272.408 334.769 M281.978 334.769 L 281.978 340.032 285.167 340.032 L 288.357 340.032 288.357 339.075 L 288.357 338.118 286.124 338.118 L 283.892 338.118 283.892 333.812 L 283.892 329.506 282.935 329.506 L 281.978 329.506 281.978 334.769 M295.375 334.769 L 295.375 340.032 298.745 340.032 L 302.116 340.032 302.015 339.155 C 301.916 338.295,301.870 338.277,299.681 338.242 L 297.448 338.206 297.350 336.886 L 297.252 335.566 299.344 335.566 C 301.362 335.566,301.435 335.538,301.435 334.769 C 301.435 334.000,301.361 333.971,299.362 333.971 L 297.289 333.971 297.289 332.695 L 297.289 331.419 299.681 331.419 L 302.073 331.419 302.073 330.463 L 302.073 329.506 298.724 329.506 L 295.375 329.506 295.375 334.769 M228.203 332.386 C 228.949 333.113,229.133 333.567,229.133 334.678 C 229.133 339.171,223.021 339.759,222.426 335.324 C 221.959 331.843,225.695 329.943,228.203 332.386 M262.775 331.802 C 263.969 332.996,262.961 334.609,261.021 334.609 L 259.649 334.609 259.649 333.014 L 259.649 331.419 261.021 331.419 C 261.775 331.419,262.565 331.592,262.775 331.802 M309.273 337.981 C 308.491 338.764,309.009 340.351,310.048 340.351 C 311.172 340.351,311.694 338.339,310.707 337.810 C 309.909 337.383,309.866 337.388,309.273 337.981 M187.662 338.912 C 187.700 339.284,187.989 339.573,188.361 339.611 C 188.821 339.658,188.847 339.632,188.457 339.516 C 188.160 339.427,187.846 339.112,187.757 338.816 C 187.641 338.426,187.614 338.452,187.662 338.912 " stroke="none" fill="#f24238" fill-rule="evenodd"></path><path id="path4" d="M200.080 52.532 C 200.387 52.613,200.889 52.613,201.196 52.532 C 201.503 52.452,201.252 52.387,200.638 52.387 C 200.024 52.387,199.773 52.452,200.080 52.532 M207.416 52.532 C 207.723 52.613,208.226 52.613,208.533 52.532 C 208.840 52.452,208.589 52.387,207.974 52.387 C 207.360 52.387,207.109 52.452,207.416 52.532 M198.166 75.180 C 198.473 75.260,198.975 75.260,199.282 75.180 C 199.589 75.100,199.338 75.034,198.724 75.034 C 198.110 75.034,197.859 75.100,198.166 75.180 M138.437 79.585 C 137.662 80.375,137.100 81.021,137.188 81.021 C 137.275 81.021,137.981 80.375,138.756 79.585 C 139.531 78.796,140.093 78.150,140.005 78.150 C 139.918 78.150,139.212 78.796,138.437 79.585 M58.298 118.634 C 56.787 119.984,56.787 122.121,58.298 123.471 L 59.340 124.402 74.359 124.402 L 89.378 124.402 90.463 123.317 C 91.671 122.109,91.871 120.849,91.093 119.345 C 90.253 117.722,90.061 117.703,74.153 117.703 L 59.340 117.703 58.298 118.634 M111.096 140.191 C 111.098 141.069,111.160 141.390,111.234 140.905 C 111.307 140.420,111.305 139.702,111.229 139.310 C 111.154 138.917,111.094 139.314,111.096 140.191 M110.441 140.351 C 110.441 140.965,110.506 141.216,110.587 140.909 C 110.667 140.602,110.667 140.100,110.587 139.793 C 110.506 139.486,110.441 139.737,110.441 140.351 M110.788 143.860 C 110.788 145.000,110.846 145.467,110.917 144.896 C 110.987 144.326,110.987 143.393,110.917 142.823 C 110.846 142.253,110.788 142.719,110.788 143.860 M110.139 143.700 C 110.141 144.577,110.203 144.898,110.277 144.413 C 110.350 143.929,110.348 143.211,110.272 142.819 C 110.197 142.426,110.137 142.823,110.139 143.700 M129.950 150.558 C 129.950 152.927,130.000 153.896,130.061 152.711 C 130.122 151.527,130.122 149.589,130.061 148.405 C 130.000 147.221,129.950 148.190,129.950 150.558 M118.341 148.029 C 118.341 148.429,119.005 149.096,119.492 149.185 C 119.678 149.219,119.830 149.059,119.830 148.830 C 119.830 148.601,119.603 148.430,119.325 148.449 C 119.047 148.469,118.856 148.305,118.900 148.086 C 118.943 147.867,118.836 147.687,118.660 147.687 C 118.485 147.687,118.341 147.841,118.341 148.029 M116.238 149.356 C 115.701 149.986,115.697 150.017,116.208 149.620 C 116.722 149.221,116.878 149.272,117.633 150.085 C 118.231 150.730,118.314 150.935,117.915 150.782 C 117.243 150.524,115.564 151.498,116.105 151.832 C 116.345 151.981,116.295 152.185,115.946 152.474 C 115.665 152.708,115.478 152.767,115.532 152.606 C 115.586 152.445,115.515 152.283,115.373 152.247 C 115.232 152.211,114.827 151.852,114.472 151.449 C 114.117 151.047,113.918 150.897,114.030 151.116 C 114.155 151.363,114.011 151.517,113.655 151.520 C 113.166 151.524,113.151 151.572,113.557 151.834 C 113.904 152.059,113.921 152.145,113.618 152.148 C 113.388 152.151,113.285 152.290,113.389 152.458 C 113.492 152.626,113.764 152.692,113.992 152.604 C 114.220 152.516,114.407 152.658,114.407 152.919 C 114.407 153.512,113.929 153.436,113.110 152.711 C 112.238 151.939,111.815 152.007,112.601 152.793 C 113.232 153.424,112.953 154.705,112.185 154.705 C 112.042 154.705,112.013 154.561,112.121 154.386 C 112.230 154.211,112.175 154.067,111.999 154.067 C 111.823 154.067,111.732 153.792,111.797 153.457 C 111.861 153.122,111.634 152.593,111.291 152.283 C 110.847 151.881,110.687 151.368,110.738 150.509 C 110.777 149.844,110.725 149.215,110.622 149.112 C 110.519 149.009,110.455 151.984,110.480 155.722 C 110.506 159.461,110.617 161.946,110.729 161.244 C 110.854 160.458,110.895 160.886,110.836 162.360 C 110.766 164.111,110.815 164.496,111.018 163.796 C 111.227 163.073,111.263 163.308,111.165 164.753 C 111.069 166.175,111.111 166.462,111.331 165.869 C 111.549 165.279,111.591 165.570,111.490 166.986 C 111.390 168.403,111.431 168.693,111.650 168.102 C 111.877 167.490,111.912 167.676,111.801 168.900 C 111.716 169.830,111.760 170.246,111.906 169.898 C 112.231 169.125,112.948 172.941,112.737 174.322 C 112.613 175.135,112.640 175.183,112.918 174.641 C 113.174 174.141,113.207 174.280,113.070 175.279 C 112.936 176.253,112.978 176.442,113.245 176.077 C 113.513 175.710,113.549 175.859,113.397 176.715 C 113.268 177.444,113.302 177.682,113.495 177.402 C 113.886 176.836,114.308 178.407,114.014 179.333 C 113.887 179.732,113.931 179.908,114.126 179.787 C 114.533 179.535,114.900 180.951,114.619 181.686 C 114.465 182.086,114.519 182.171,114.813 181.990 C 115.118 181.801,115.163 181.918,114.992 182.456 C 114.855 182.888,114.886 183.099,115.070 182.985 C 115.479 182.732,116.172 185.109,115.898 185.824 C 115.738 186.241,115.792 186.320,116.104 186.127 C 116.386 185.953,116.450 185.990,116.297 186.237 C 115.981 186.749,116.397 187.935,116.804 187.684 C 117.017 187.552,117.053 187.734,116.906 188.198 C 116.735 188.736,116.780 188.852,117.085 188.664 C 117.375 188.485,117.434 188.565,117.289 188.943 C 117.023 189.637,117.357 190.485,117.791 190.217 C 118.004 190.085,118.055 190.205,117.927 190.538 C 117.661 191.232,117.995 192.080,118.429 191.812 C 118.642 191.680,118.693 191.800,118.565 192.133 C 118.315 192.785,118.622 193.682,119.013 193.440 C 119.170 193.343,119.319 193.452,119.345 193.681 C 119.371 193.911,119.422 194.314,119.458 194.577 C 119.494 194.841,119.544 195.244,119.570 195.473 C 119.596 195.703,119.759 195.803,119.933 195.696 C 120.120 195.580,120.163 195.723,120.038 196.049 C 119.896 196.417,119.948 196.521,120.197 196.367 C 120.439 196.218,120.501 196.311,120.377 196.634 C 120.272 196.907,120.354 197.129,120.559 197.129 C 120.763 197.129,120.842 197.273,120.734 197.448 C 120.625 197.624,120.697 197.767,120.893 197.767 C 121.089 197.767,121.161 197.911,121.053 198.086 C 120.944 198.262,121.016 198.405,121.212 198.405 C 121.408 198.405,121.480 198.549,121.372 198.724 C 121.263 198.900,121.326 199.043,121.512 199.043 C 121.698 199.043,121.822 199.151,121.787 199.282 C 121.644 199.822,122.238 200.952,122.560 200.753 C 122.763 200.628,122.814 200.688,122.684 200.898 C 122.409 201.344,123.328 203.190,123.825 203.190 C 124.025 203.190,124.096 203.283,123.982 203.397 C 123.867 203.512,124.023 203.809,124.327 204.059 C 124.631 204.309,124.687 204.413,124.450 204.291 C 124.103 204.113,124.090 204.201,124.381 204.746 C 124.580 205.118,124.858 205.423,124.998 205.423 C 125.138 205.423,125.253 205.606,125.253 205.831 C 125.253 206.373,126.313 207.974,126.671 207.974 C 126.827 207.974,126.937 208.082,126.916 208.214 C 126.810 208.882,126.993 209.264,127.322 209.060 C 127.528 208.933,127.604 208.972,127.496 209.148 C 127.270 209.512,128.739 211.802,129.198 211.802 C 129.367 211.802,129.470 211.936,129.426 212.099 C 129.382 212.262,129.633 212.631,129.984 212.920 C 130.335 213.208,130.417 213.337,130.165 213.207 C 129.914 213.076,130.111 213.496,130.602 214.140 C 131.093 214.784,131.630 215.311,131.795 215.311 C 131.960 215.311,132.016 215.440,131.919 215.597 C 131.821 215.754,132.562 216.723,133.564 217.750 C 134.566 218.777,135.103 219.402,134.758 219.139 C 133.589 218.247,139.397 224.492,142.355 227.307 C 167.278 251.029,203.060 259.149,235.059 248.344 C 239.258 246.926,244.074 244.954,244.140 244.625 C 244.176 244.447,237.449 236.983,231.993 231.146 L 229.650 228.640 226.069 229.625 C 194.411 238.335,162.956 226.766,144.652 199.681 C 143.644 198.190,142.683 196.882,142.515 196.775 C 142.347 196.667,142.242 196.477,142.280 196.351 C 142.369 196.062,139.654 191.265,139.320 191.121 C 139.183 191.062,139.152 190.883,139.251 190.722 C 139.350 190.562,139.284 190.431,139.104 190.431 C 138.924 190.431,138.868 190.192,138.980 189.900 C 139.116 189.545,139.061 189.445,138.814 189.597 C 138.580 189.742,138.508 189.660,138.618 189.372 C 138.714 189.122,138.576 188.701,138.311 188.436 C 138.046 188.171,137.918 187.866,138.027 187.757 C 138.135 187.649,138.048 187.560,137.833 187.560 C 137.618 187.560,137.531 187.416,137.640 187.241 C 137.748 187.065,137.689 186.922,137.509 186.922 C 137.329 186.922,137.273 186.683,137.385 186.391 C 137.521 186.037,137.466 185.936,137.219 186.089 C 136.978 186.238,136.915 186.145,137.039 185.822 C 137.144 185.549,137.062 185.327,136.857 185.327 C 136.653 185.327,136.574 185.183,136.683 185.008 C 136.791 184.833,136.744 184.689,136.577 184.689 C 136.411 184.689,136.291 184.510,136.310 184.290 C 136.366 183.650,135.490 181.180,135.207 181.180 C 135.065 181.180,135.040 180.941,135.152 180.649 C 135.297 180.272,135.238 180.191,134.948 180.370 C 134.643 180.559,134.598 180.442,134.769 179.904 C 134.934 179.383,134.891 179.252,134.609 179.426 C 134.328 179.600,134.284 179.469,134.450 178.947 C 134.615 178.426,134.572 178.295,134.290 178.469 C 134.009 178.643,133.965 178.512,134.131 177.990 C 134.296 177.469,134.253 177.338,133.971 177.512 C 133.690 177.686,133.646 177.555,133.812 177.033 C 133.977 176.512,133.934 176.381,133.652 176.555 C 133.374 176.727,133.326 176.603,133.480 176.117 C 133.599 175.742,133.556 175.439,133.385 175.439 C 133.214 175.439,133.155 175.129,133.254 174.751 C 133.368 174.315,133.311 174.139,133.099 174.270 C 132.672 174.534,132.288 173.058,132.544 172.142 C 132.703 171.573,132.672 171.536,132.370 171.930 C 132.081 172.308,132.043 172.174,132.190 171.292 C 132.307 170.586,132.271 170.338,132.092 170.616 C 131.721 171.193,131.284 168.746,131.574 167.717 C 131.740 167.127,131.711 167.078,131.422 167.464 C 131.145 167.833,131.103 167.613,131.240 166.507 C 131.358 165.549,131.325 165.284,131.139 165.710 C 130.718 166.673,130.301 163.823,130.323 160.128 C 130.335 158.105,130.270 157.522,130.128 158.373 L 129.915 159.649 129.870 158.161 C 129.845 157.342,129.675 156.622,129.491 156.561 C 129.121 156.437,129.078 155.867,129.278 153.741 C 129.412 152.322,128.840 151.104,128.386 151.840 C 128.183 152.168,126.930 152.054,126.272 151.647 C 126.063 151.518,125.983 151.554,126.091 151.728 C 126.431 152.278,125.202 153.067,124.563 152.709 C 124.171 152.490,124.060 152.496,124.204 152.729 C 124.319 152.914,124.231 153.171,124.008 153.299 C 123.786 153.427,123.712 153.412,123.844 153.267 C 123.976 153.121,123.833 152.715,123.525 152.363 C 123.218 152.012,123.146 151.829,123.365 151.958 C 123.632 152.114,123.764 151.967,123.764 151.515 C 123.764 151.086,123.898 150.922,124.132 151.067 C 124.369 151.214,124.414 151.154,124.257 150.900 C 124.079 150.613,123.776 150.733,123.140 151.342 C 122.314 152.133,122.244 152.148,121.820 151.607 C 121.411 151.087,121.421 151.076,121.930 151.474 C 122.295 151.761,122.488 151.789,122.488 151.554 C 122.488 150.938,122.541 150.736,122.878 150.080 C 123.146 149.556,123.129 149.513,122.782 149.841 C 122.550 150.060,121.994 150.237,121.547 150.234 C 120.915 150.231,120.839 150.163,121.208 149.929 C 121.584 149.692,121.539 149.640,120.991 149.682 C 120.215 149.740,120.175 150.201,120.893 150.786 C 121.199 151.036,121.235 151.180,120.992 151.186 C 120.783 151.192,120.523 151.052,120.414 150.876 C 120.305 150.700,119.866 150.644,119.438 150.751 C 118.946 150.875,118.660 150.809,118.660 150.574 C 118.660 150.369,118.814 150.297,119.003 150.413 C 119.191 150.530,119.161 150.330,118.936 149.970 C 118.649 149.509,118.413 149.409,118.144 149.633 C 117.875 149.856,117.624 149.756,117.303 149.297 L 116.846 148.644 116.238 149.356 M216.893 150.000 C 217.675 150.833,218.357 151.515,218.408 151.515 C 218.647 151.515,218.394 151.229,216.986 149.907 L 215.470 148.485 216.893 150.000 M126.878 153.130 C 126.979 153.504,126.939 153.500,126.659 153.110 C 126.354 152.685,126.281 152.685,126.002 153.110 C 125.829 153.373,125.685 153.433,125.683 153.243 C 125.671 152.385,126.652 152.292,126.878 153.130 M128.230 154.173 C 128.230 154.407,128.028 154.599,127.782 154.599 C 127.535 154.599,127.407 154.407,127.497 154.173 C 127.587 153.939,127.788 153.748,127.945 153.748 C 128.101 153.748,128.230 153.939,128.230 154.173 M214.833 157.576 C 216.228 158.979,217.441 160.128,217.529 160.128 C 217.617 160.128,216.547 158.979,215.152 157.576 C 213.756 156.172,212.543 155.024,212.455 155.024 C 212.367 155.024,213.437 156.172,214.833 157.576 M110.143 156.938 C 110.143 157.903,110.203 158.297,110.276 157.815 C 110.349 157.333,110.349 156.543,110.276 156.061 C 110.203 155.578,110.143 155.973,110.143 156.938 M240.597 161.085 C 240.597 161.874,240.659 162.197,240.735 161.802 C 240.812 161.407,240.812 160.762,240.735 160.367 C 240.659 159.972,240.597 160.295,240.597 161.085 M138.843 162.041 C 138.843 162.831,138.905 163.154,138.981 162.759 C 139.057 162.364,139.057 161.719,138.981 161.324 C 138.905 160.929,138.843 161.252,138.843 162.041 M170.335 162.231 C 170.335 162.394,172.739 164.894,175.678 167.787 L 181.021 173.046 175.758 167.635 C 172.863 164.659,170.459 162.159,170.415 162.079 C 170.371 162.000,170.335 162.068,170.335 162.231 M173.684 175.439 C 174.548 176.316,175.327 177.033,175.415 177.033 C 175.502 177.033,174.867 176.316,174.003 175.439 C 173.139 174.561,172.361 173.844,172.273 173.844 C 172.185 173.844,172.820 174.561,173.684 175.439 M285.410 286.031 C 285.807 286.107,286.381 286.104,286.686 286.025 C 286.991 285.945,286.667 285.882,285.965 285.886 C 285.263 285.889,285.014 285.955,285.410 286.031 M314.593 286.025 C 314.900 286.106,315.403 286.106,315.710 286.025 C 316.017 285.945,315.766 285.879,315.152 285.879 C 314.537 285.879,314.286 285.945,314.593 286.025 M337.719 286.031 C 338.114 286.107,338.760 286.107,339.155 286.031 C 339.549 285.955,339.226 285.892,338.437 285.892 C 337.648 285.892,337.325 285.955,337.719 286.031 M302.213 286.860 C 302.125 287.089,302.098 289.063,302.154 291.246 L 302.254 295.215 302.323 291.001 L 302.392 286.786 305.343 286.681 L 308.293 286.576 305.333 286.510 C 303.143 286.461,302.331 286.552,302.213 286.860 M126.431 289.633 C 126.431 291.300,126.485 291.982,126.550 291.148 C 126.616 290.315,126.616 288.951,126.550 288.118 C 126.485 287.285,126.431 287.967,126.431 289.633 M204.610 299.043 C 204.610 305.710,204.653 308.482,204.704 305.204 C 204.756 301.926,204.756 296.472,204.705 293.083 C 204.653 289.694,204.611 292.376,204.610 299.043 M168.539 294.737 C 168.539 296.579,168.592 297.333,168.656 296.411 C 168.721 295.490,168.721 293.983,168.656 293.062 C 168.592 292.141,168.539 292.895,168.539 294.737 M126.407 295.534 C 126.409 296.411,126.471 296.732,126.545 296.248 C 126.618 295.763,126.616 295.045,126.540 294.653 C 126.465 294.260,126.405 294.657,126.407 295.534 M324.540 303.668 C 324.540 307.967,324.585 309.725,324.640 307.576 C 324.695 305.427,324.695 301.910,324.640 299.761 C 324.585 297.612,324.540 299.370,324.540 303.668 M280.031 296.747 C 280.172 296.888,281.207 296.958,282.329 296.903 L 284.370 296.803 282.072 296.647 C 280.808 296.561,279.889 296.606,280.031 296.747 M132.463 297.927 C 132.463 298.716,132.525 299.039,132.602 298.644 C 132.678 298.250,132.678 297.604,132.602 297.209 C 132.525 296.814,132.463 297.137,132.463 297.927 M286.357 296.881 C 286.923 296.951,287.928 296.953,288.589 296.884 C 289.251 296.814,288.788 296.757,287.560 296.755 C 286.332 296.754,285.790 296.810,286.357 296.881 M308.207 304.067 L 308.134 311.643 305.290 311.643 C 303.665 311.643,302.376 311.503,302.283 311.316 C 302.194 311.136,302.158 311.172,302.203 311.396 C 302.322 311.987,308.082 312.150,308.305 311.568 C 308.393 311.338,308.424 307.852,308.373 303.821 L 308.281 296.491 308.207 304.067 M147.820 303.030 C 147.820 306.276,147.867 307.604,147.925 305.981 C 147.983 304.358,147.983 301.703,147.925 300.080 C 147.867 298.457,147.820 299.785,147.820 303.030 M157.074 304.147 C 157.074 308.006,157.120 309.541,157.176 307.558 C 157.232 305.575,157.232 302.417,157.176 300.541 C 157.119 298.664,157.073 300.287,157.074 304.147 M318.477 304.306 C 318.477 308.078,318.523 309.621,318.579 307.735 C 318.636 305.849,318.636 302.763,318.579 300.877 C 318.523 298.991,318.477 300.534,318.477 304.306 M302.206 304.147 C 302.207 307.480,302.254 308.800,302.311 307.081 C 302.369 305.361,302.369 302.634,302.311 301.020 C 302.253 299.406,302.206 300.813,302.206 304.147 M126.411 301.116 C 126.411 302.081,126.471 302.476,126.544 301.994 C 126.617 301.511,126.617 300.722,126.544 300.239 C 126.471 299.757,126.411 300.152,126.411 301.116 M279.953 301.037 C 279.871 301.168,282.483 301.239,285.756 301.194 C 296.747 301.044,297.829 300.931,288.934 300.864 C 284.076 300.827,280.035 300.905,279.953 301.037 M132.475 304.466 C 132.477 305.518,132.537 305.911,132.608 305.337 C 132.679 304.764,132.677 303.903,132.604 303.423 C 132.532 302.944,132.473 303.413,132.475 304.466 M126.434 307.496 C 126.434 309.338,126.487 310.092,126.551 309.171 C 126.615 308.250,126.615 306.742,126.551 305.821 C 126.487 304.900,126.434 305.654,126.434 307.496 M168.561 312.759 C 168.561 317.496,168.605 319.478,168.659 317.164 C 168.714 314.850,168.714 310.975,168.660 308.552 C 168.605 306.129,168.561 308.022,168.561 312.759 M264.673 305.821 L 271.451 305.914 271.451 308.774 L 271.451 311.634 261.563 311.725 L 251.674 311.816 261.643 311.809 L 271.611 311.802 271.702 308.692 L 271.793 305.582 264.844 305.655 L 257.895 305.728 264.673 305.821 M286.048 307.084 C 286.445 307.160,287.019 307.157,287.324 307.077 C 287.629 306.997,287.305 306.935,286.603 306.938 C 285.901 306.942,285.652 307.007,286.048 307.084 M141.718 310.207 C 141.720 311.085,141.782 311.406,141.856 310.921 C 141.929 310.436,141.927 309.718,141.851 309.326 C 141.776 308.933,141.716 309.330,141.718 310.207 M319.867 311.878 C 320.794 311.943,322.229 311.942,323.057 311.877 C 323.884 311.811,323.126 311.758,321.372 311.759 C 319.617 311.760,318.940 311.814,319.867 311.878 M285.412 312.512 C 285.986 312.583,286.847 312.581,287.326 312.509 C 287.806 312.436,287.337 312.378,286.284 312.380 C 285.231 312.381,284.839 312.441,285.412 312.512 M337.560 312.509 C 338.042 312.582,338.832 312.582,339.314 312.509 C 339.797 312.436,339.402 312.376,338.437 312.376 C 337.472 312.376,337.077 312.436,337.560 312.509 M103.480 334.769 C 103.479 337.751,103.527 339.014,103.586 337.575 C 103.645 336.137,103.646 333.697,103.587 332.153 C 103.528 330.609,103.480 331.786,103.480 334.769 M110.122 330.463 C 110.122 331.077,110.187 331.328,110.268 331.021 C 110.348 330.714,110.348 330.211,110.268 329.904 C 110.187 329.597,110.122 329.848,110.122 330.463 M105.385 332.536 L 105.423 333.812 106.858 333.847 L 108.293 333.882 106.956 333.750 C 105.681 333.624,105.612 333.562,105.483 332.439 L 105.347 331.260 105.385 332.536 M109.372 334.679 C 109.519 335.565,109.564 335.610,109.664 334.971 C 109.729 334.556,109.651 334.085,109.491 333.924 C 109.314 333.748,109.267 334.045,109.372 334.679 M121.431 333.884 C 123.082 333.981,123.428 334.102,123.547 334.628 C 123.660 335.127,123.681 335.107,123.647 334.534 C 123.608 333.864,123.453 333.810,121.531 333.790 L 119.458 333.768 121.431 333.884 M105.319 336.922 L 105.263 338.437 107.634 338.437 C 109.917 338.437,110.011 338.467,110.145 339.238 C 110.273 339.972,110.282 339.966,110.246 339.159 C 110.208 338.291,110.172 338.276,107.912 338.184 L 105.617 338.091 105.496 336.749 L 105.375 335.407 105.319 336.922 M96.406 337.161 C 96.406 337.775,96.471 338.026,96.552 337.719 C 96.632 337.412,96.632 336.910,96.552 336.603 C 96.471 336.296,96.406 336.547,96.406 337.161 M121.670 338.349 C 123.905 338.456,124.051 338.509,124.182 339.251 C 124.304 339.950,124.316 339.939,124.281 339.159 C 124.242 338.278,124.242 338.278,121.769 338.256 L 119.296 338.234 121.670 338.349 M120.849 339.041 C 121.217 339.274,121.217 339.344,120.849 339.490 C 120.610 339.585,120.794 339.674,121.258 339.688 C 121.732 339.702,122.181 339.503,122.284 339.234 C 122.424 338.870,122.224 338.757,121.441 338.761 C 120.741 338.764,120.553 338.853,120.849 339.041 M92.109 340.257 C 92.506 340.334,93.080 340.331,93.385 340.251 C 93.690 340.171,93.365 340.109,92.663 340.112 C 91.962 340.116,91.712 340.181,92.109 340.257 " stroke="none" fill="#096add" fill-rule="evenodd"></path></g></svg>